# xmcd CD database file
#
# Track frame offsets:
#	150
#	25018
#	39729
#	60448
#	81092
#	96949
#	114060
#	134517
#	153254
#	165978
#	186928
#	196353
#	210190
#	223932
#	240290
#
# Disc length: 3521 seconds
#
# Revision: 0
# Processed by: cddbd v1.5.1PL2 Copyright (c) Steve Scherf et al.
# Submitted via: CDex 1.51
#
DISCID=bb0dbf0f
DTITLE=用心棒 - Yo-JiN-Bo〜運命のフロイデ〜
DYEAR=2005
DGENRE=Rock
TTITLE0=Wolf
TTITLE1=GO DASH
TTITLE2=Real Rock
TTITLE3=ヘブン侍
TTITLE4=RULE
TTITLE5=GET UP
TTITLE6=Visitor
TTITLE7=用心棒のテーマ
TTITLE8=MUNESHIGE
TTITLE9=Oh My Love
TTITLE10=FURARETEブルース
TTITLE11=カルマ
TTITLE12=因輪
TTITLE13=Promise Land
TTITLE14=ミラクル
EXTD=YEAR: 2005
EXTT0=
EXTT1=
EXTT2=
EXTT3=
EXTT4=
EXTT5=
EXTT6=
EXTT7=
EXTT8=
EXTT9=
EXTT10=
EXTT11=
EXTT12=
EXTT13=
EXTT14=
PLAYORDER=
